<svg width="152" height="152" viewBox="0 0 152 152" fill="none" xmlns="http://www.w3.org/2000/svg">
<rect width="152" height="152" fill="#EEEEEE"/>
<path d="M71.3182 17.8436C81.5639 32.0321 50.0291 41.6689 35.5618 31.0261C29.5335 26.492 32.3062 17.7299 46.9287 12.9683C54.2464 10.5306 64.4921 8.31461 71.3182 17.8436Z" fill="black"/>
<path d="M135.815 11.6008C146.962 27.046 112.616 37.5401 96.8721 25.9525C90.309 21.0102 93.3232 11.4812 109.261 6.29393C117.221 3.63759 128.372 1.23203 135.815 11.6008Z" fill="black"/>
<path fill-rule="evenodd" clip-rule="evenodd" d="M69.8568 143.633C93.1856 145.438 117.467 140.519 126.846 130.36C134.776 121.837 128.286 118.886 119.149 125.768C99.9168 140.685 79.9602 133.964 71.5472 118.886L73.7119 118.396C114.341 107.415 139.826 77.5921 123.72 60.7123C101.594 37.4409 32.354 58.2513 23.6952 90.865C15.7608 121.018 36.4376 141.175 69.8568 143.633ZM94.8668 62.3539C101.84 69.8913 93.4265 96.6034 68.1788 108.73C67.4587 104.957 67.4587 100.863 67.9374 96.6034C72.9869 66.7772 87.4154 54.4899 94.8668 62.3539Z" fill="black"/>
</svg>
